<svg id="Layer_1" data-name="Layer 1" xmlns="http://www.w3.org/2000/svg" xmlns:xlink="http://www.w3.org/1999/xlink" viewBox="0 0 380.19 272.57"><defs><clipPath id="clip-path" transform="translate(-6.51 -16.91)"><path d="M101,101l-1.12,1A171.62,171.62,0,0,0,40.85,239c0,.3,345.69.3,345.68.3a171.32,171.32,0,0,0-42-120.24h0l-1-1.13a171.86,171.86,0,0,0-242.45-17.06l-.12.1" fill="none"/></clipPath></defs><path d="M190.92,214S286.08,90.59,295,32.56s80.66,57.8,67.56,142.57S190.92,214,190.92,214Z" transform="translate(-6.51 -16.91)" fill="#108dd5"/><path d="M144.56,101.53S186.2,82,187.76,45.11,249.45,77.43,239,115.66s-94.45-14.13-94.45-14.13Z" transform="translate(-6.51 -16.91)" fill="#1dacff"/><path d="M95.68,239.3H386.54c0-.1,0-.2,0-.3A171.4,171.4,0,0,0,364,146.4a0,0,0,0,1,0,0v0a173,173,0,0,0-19.45-27.31l-1-1.13q-1.74-2-3.54-4h0A172.15,172.15,0,0,0,184.35,61.29h0A171.12,171.12,0,0,0,101,101l-1.13,1a171.15,171.15,0,0,0-53.41,85.69A173.25,173.25,0,0,0,40.85,239Z" transform="translate(-6.51 -16.91)" fill="#1dacff"/><path d="M95.68,239.3c0-.1,0-.2.07-.3C102,212.4,78,159.4,78,159.4S66.08,178,46.43,187.63A51.39,51.39,0,0,1,17.67,193c-9.09-1-12.1,2.56-10.91,8.44l0,.09c2,9.76,15.54,25.75,32.08,37.5h2Z" transform="translate(-6.51 -16.91)" fill="#1dacff"/><g clip-path="url(#clip-path)"><path d="M320.53,197.87c-13.26,5.68-30.67,4.94-47.52-.09-5.18-.61-9.75-.64-14.24,3.07-7,6.42-4.21,14.44-5.43,24.45.81,14-1.44,27.45-7.54,37.53-19.76,32.61-67.43,35.72-106.49,6.93S86.5,188.11,104.38,158.59c.39-.64.79-1.25,1.2-1.85l-.12-.11s9.23-14.23,30.63-23.22c20.63-8.66,31.33-4.12,47.7-17.38,15.41-14.37,12.41-25.59,23.86-44.82,11.89-19.94,27.27-27.1,27.27-27.1l.08.13c.65-.32,1.31-.63,2-.93,31.74-13.6,82.16,7.4,105.23,50.08,19.61,36.3,15.53,75.55-7.68,95.72a53.06,53.06,0,0,1-14,8.76" transform="translate(-6.51 -16.91)" fill="#7dcfff"/></g><path d="M245.77,224.53A52.51,52.51,0,0,1,240.58,239c-.05.1-.1.2-.16.3H142.09a3.65,3.65,0,0,1-.27-.3c-.27-.29-.53-.58-.79-.88-25-28.83-26-69-2.1-89.81s63.58-14.24,88.64,14.59c0,0,.05,0,.06.08C243.72,181.53,249.84,204.79,245.77,224.53Z" transform="translate(-6.51 -16.91)" fill="#fff"/><path d="M233.83,65.81c23.9-20.77,63.58-14.24,88.64,14.58s26,69,2.11,89.81S261,184.44,235.94,155.62s-26-69-2.11-89.81Z" transform="translate(-6.51 -16.91)" fill="#fff"/><path d="M299.27,198.46c7.75,4.2,6.14,17.33-2.4,19.52l-27.8,7.16c-6.17,1.59-10.68-3.25-13.38-11.36a22,22,0,0,1,2.59-21.11c4.58-7.25,10.14-10.92,15.74-7.88Z" transform="translate(-6.51 -16.91)" fill="#ffc200"/><path d="M253.27,67.57c11.13-9.67,29.86-6.36,41.83,7.4s12.64,32.77,1.51,42.45-29.86,6.36-41.83-7.4-12.64-32.77-1.51-42.45Z" transform="translate(-6.51 -16.91)" fill="#0a1f30"/><path d="M254.55,77c4.68-4.07,12.56-2.68,17.59,3.11s5.32,13.78.64,17.86-12.56,2.67-17.59-3.12S249.87,81,254.55,77Z" transform="translate(-6.51 -16.91)" fill="#fff"/><path d="M161.39,154.39c11.13-9.68,29.86-6.37,41.83,7.4s12.64,32.77,1.51,42.44-29.86,6.37-41.83-7.4-12.64-32.77-1.51-42.44Z" transform="translate(-6.51 -16.91)" fill="#0a1f30"/><path d="M163.07,163.41c4.68-4.07,12.56-2.68,17.59,3.11s5.32,13.79.64,17.86-12.56,2.67-17.6-3.12-5.32-13.78-.63-17.85Z" transform="translate(-6.51 -16.91)" fill="#fff"/></svg>