<svg width="90" height="15" viewBox="0 0 90 15" fill="none" xmlns="http://www.w3.org/2000/svg">
<g clip-path="url(#clip0_2_679)">
<path d="M2.52965 15.0001C1.76037 15.0001 1.1467 14.7838 0.688643 14.3511C0.22335 13.9189 0.00155098 13.3453 0 12.6301V2.29636C0 1.57863 0.210945 1.01727 0.63281 0.612268C1.05468 0.207264 1.6125 0.00219694 2.3063 -0.00292969H5.69209C7.32889 -0.00292969 8.71752 0.324148 9.85801 0.978305C10.9685 1.60281 11.8775 2.52708 12.4791 3.64364C13.1008 4.82631 13.4143 6.14437 13.3911 7.47785C13.3911 8.95944 13.0809 10.2678 12.4605 11.4028C11.8789 12.5029 11.0006 13.4214 9.92357 14.0557C8.84655 14.69 7.61307 15.0154 6.36055 14.9955L2.52965 15.0001ZM4.2776 12.0364H5.72931C7.14173 12.0364 8.22018 11.6355 8.96464 10.8337C9.70911 10.0319 10.071 8.91484 10.0503 7.48246C10.0255 5.99984 9.64086 4.87608 8.89639 4.11119C8.15192 3.3463 7.08589 2.96385 5.69828 2.96385H4.28379C3.6634 2.96385 3.35321 3.27145 3.35321 3.88664V11.1075C3.35321 11.7227 3.6634 12.0303 4.28379 12.0303" fill="#1DACFF"/>
<path d="M16.9506 3.08523C16.5157 3.09347 16.0941 2.93668 15.7719 2.64691C15.6125 2.50685 15.4859 2.33393 15.4009 2.14026C15.316 1.94659 15.2748 1.73684 15.2802 1.52571C15.2794 1.32177 15.3228 1.12005 15.4077 0.934271C15.4925 0.748492 15.6167 0.583018 15.7719 0.449121C16.0894 0.150139 16.5128 -0.0128493 16.9506 -0.00458306C17.1598 -0.00731042 17.3674 0.0314169 17.5613 0.109327C17.7552 0.187238 17.9315 0.30276 18.0797 0.449121C18.2307 0.585447 18.3509 0.751778 18.4327 0.937275C18.5145 1.12277 18.5559 1.32327 18.5543 1.52571C18.5615 1.73465 18.5237 1.9427 18.4435 2.13603C18.3633 2.32935 18.2424 2.50351 18.089 2.64691C17.7841 2.93345 17.3784 3.09071 16.9584 3.08523" fill="#1DACFF"/>
<path d="M16.9553 15C16.5222 15.0121 16.0994 14.8678 15.7657 14.5939C15.6109 14.4697 15.4868 14.3119 15.4029 14.1328C15.319 13.9537 15.2776 13.7579 15.2818 13.5604V5.18914C15.2807 4.99666 15.3218 4.80624 15.4021 4.631C15.4825 4.45577 15.6001 4.29988 15.7471 4.17407C16.0791 3.88278 16.5124 3.73109 16.9553 3.75112C17.1694 3.73921 17.3838 3.77055 17.5853 3.84326C17.7869 3.91596 17.9714 4.02851 18.1278 4.17407C18.2676 4.31122 18.3776 4.47533 18.4509 4.65626C18.5243 4.8372 18.5595 5.03112 18.5543 5.22606V13.5235C18.5584 13.7218 18.5188 13.9186 18.4385 14.1003C18.3581 14.282 18.2389 14.4441 18.089 14.5755C17.7808 14.8572 17.3744 15.0093 16.9553 15Z" fill="#1DACFF"/>
<path d="M26.2642 15C25.2645 15.0065 24.2785 14.7704 23.3918 14.3125C22.5048 13.8563 21.7637 13.1639 21.2515 12.3132C20.7148 11.4416 20.4465 10.4014 20.4465 9.19258C20.4703 7.52233 21.0193 6.19761 22.0937 5.21842C23.168 4.23924 24.5581 3.74964 26.2642 3.74964C26.9167 3.74861 27.5671 3.82137 28.2029 3.9665C28.8086 4.09773 29.3735 4.3715 29.8501 4.76472C30.0243 4.89648 30.1647 5.06705 30.2601 5.26263C30.3555 5.45821 30.4031 5.67331 30.3991 5.89052C30.3974 6.28141 30.2467 6.6572 29.9773 6.94251C29.8497 7.09286 29.69 7.21312 29.5097 7.29454C29.3294 7.37595 29.1331 7.41647 28.935 7.41313C28.6744 7.41646 28.419 7.3408 28.2029 7.19628C27.8963 7.027 27.5711 6.89334 27.2336 6.79794C26.9294 6.72198 26.6166 6.68528 26.303 6.68874C25.4975 6.68874 24.8389 6.91841 24.327 7.37776C23.8152 7.8371 23.5567 8.4523 23.5516 9.22334C23.5516 10.1185 23.8318 10.8141 24.3922 11.3104C24.932 11.7977 25.6382 12.0638 26.3681 12.0548C27.2222 12.0548 28.0272 11.74 28.783 11.1105C29.0202 10.9133 29.316 10.7988 29.6252 10.7844C29.8178 10.7841 30.008 10.8264 30.1821 10.908C30.3562 10.9897 30.5098 11.1087 30.6318 11.2566C30.9048 11.5537 31.0549 11.9419 31.0521 12.3439C31.0487 12.5363 31.012 12.7268 30.9435 12.9068C30.8557 13.1335 30.7179 13.3379 30.5403 13.5051C29.9196 14.0166 29.2056 14.4051 28.4371 14.6494C27.7348 14.8714 27.0029 14.9876 26.2658 14.9939" fill="#1DACFF"/>
<path d="M44.4758 5.33682C44.4754 4.95061 44.333 4.57778 44.0751 4.28833C43.8172 3.99889 43.4617 3.81272 43.0753 3.76477C42.6888 3.71681 42.2979 3.81038 41.9761 4.0279C41.6543 4.24542 41.4236 4.57194 41.3273 4.94617C40.5259 4.17057 39.4475 3.74095 38.3277 3.75115C36.7178 3.75115 35.4186 4.25305 34.4301 5.25685C33.4416 6.26064 32.9479 7.62125 32.9489 9.33867C32.9489 11.0561 33.4551 12.429 34.4673 13.4574C35.4796 14.4858 36.8031 14.9985 38.4378 14.9954C39.5017 15.0244 40.5364 14.6479 41.3288 13.9434C41.5232 14.6437 42.0232 14.9944 42.8286 14.9954C43.2616 15.0138 43.6858 14.8711 44.0182 14.5955C44.1673 14.4711 44.2864 14.3153 44.3669 14.1394C44.4474 13.9635 44.4872 13.772 44.4835 13.5789V5.33682M40.5611 11.2796C40.0979 11.8015 39.4775 12.0614 38.6999 12.0594C38.353 12.0714 38.0077 12.0078 37.6882 11.8731C37.3688 11.7383 37.0831 11.5358 36.8512 11.2796C36.3715 10.7471 36.1162 10.0524 36.1377 9.33867C36.1377 8.53994 36.3755 7.8986 36.8512 7.41464C37.0919 7.17345 37.3805 6.98451 37.6988 6.85981C38.0171 6.73511 38.358 6.67737 38.6999 6.69025C39.4806 6.69025 40.101 6.93172 40.5611 7.41464C41.0212 7.89757 41.2534 8.53891 41.2575 9.33867C41.2807 10.0493 41.0326 10.7425 40.5627 11.2796" fill="#1DACFF"/>
<path d="M71.5682 15.0001C70.5576 15.0088 69.5618 14.7587 68.6772 14.2741C67.7891 13.7892 67.0509 13.0735 66.5418 12.204C66.0328 11.3345 65.7721 10.344 65.7877 9.33874C65.7634 8.31024 66.0362 7.29629 66.5741 6.41656C67.0887 5.59046 67.8149 4.91438 68.6788 4.45717C69.5735 3.99194 70.5688 3.7489 71.5791 3.7489C72.5894 3.7489 73.5846 3.99194 74.4794 4.45717C75.3315 4.9166 76.0442 5.59363 76.5437 6.4181C77.0722 7.30129 77.3409 8.31354 77.3192 9.34028C77.3342 10.3662 77.0661 11.3767 76.5437 12.2625C76.0484 13.1051 75.3345 13.8007 74.4763 14.2772C73.5868 14.7666 72.5838 15.0169 71.5667 15.0031M71.5667 12.0625C71.9135 12.0742 72.2588 12.0105 72.5782 11.8758C72.8976 11.7411 73.1833 11.5387 73.4154 11.2828C73.8951 10.7502 74.1504 10.0555 74.1289 9.34181C74.1289 8.54308 73.8911 7.90226 73.4154 7.41933C73.175 7.17763 72.8865 6.98825 72.5682 6.86327C72.2498 6.73828 71.9088 6.68043 71.5667 6.6934C71.2253 6.68476 70.8858 6.74461 70.5683 6.86936C70.2509 6.9941 69.9622 7.18117 69.7195 7.41933C69.218 7.90328 68.9678 8.54411 68.9688 9.34181C68.9583 9.69848 69.0193 10.0537 69.1481 10.3868C69.277 10.72 69.4712 11.0245 69.7195 11.2828C69.9542 11.5349 70.2402 11.7348 70.5587 11.8692C70.8771 12.0037 71.2207 12.0695 71.5667 12.0625Z" fill="#1DACFF"/>
<path d="M88.7189 4.94778C87.8648 4.15007 86.7548 3.75122 85.3889 3.75122C84.0448 3.75122 83.0444 4.17417 82.3878 5.02006C82.369 4.9617 82.3462 4.90466 82.3196 4.84935C82.2026 4.49092 81.9605 4.18564 81.6368 3.98837C81.3132 3.79111 80.9291 3.71481 80.5538 3.7732C80.1785 3.83158 79.8365 4.02082 79.5893 4.30688C79.3421 4.59295 79.2059 4.95708 79.2052 5.33381V13.5851C79.2008 13.779 79.2413 13.9714 79.3236 14.1473C79.4058 14.3233 79.5277 14.4782 79.6798 14.6002C80.008 14.8705 80.4244 15.0127 80.8508 15.0001C81.2635 15.0102 81.6639 14.8607 81.9675 14.5833C82.1162 14.4546 82.2349 14.2954 82.3152 14.1166C82.3956 13.9379 82.4357 13.7439 82.4328 13.5482V8.57743C82.5337 8.0625 82.7965 7.59249 83.1835 7.23477C83.3846 7.04226 83.6226 6.89164 83.8833 6.79179C84.1441 6.69194 84.4224 6.64489 84.7018 6.65341C84.9756 6.6473 85.2479 6.69559 85.5025 6.79544C85.7571 6.89528 85.9891 7.04466 86.1846 7.23477C86.5868 7.62029 86.7879 8.26112 86.7879 9.15725V13.5851C86.7838 13.7781 86.8234 13.9695 86.904 14.1452C86.9845 14.3209 87.1039 14.4764 87.2532 14.6002C87.5733 14.8718 87.9845 15.0145 88.4056 15.0001C88.8236 15.0157 89.2332 14.8802 89.558 14.6186C89.7048 14.5047 89.8232 14.3587 89.9039 14.1919C89.9846 14.0252 90.0254 13.8423 90.0233 13.6574V8.75891C90.0233 7.01586 89.5962 5.74548 88.7421 4.94778" fill="#1DACFF"/>
<path d="M62.709 4.96772C61.918 4.17105 60.8406 3.77271 59.4768 3.77271C58.7969 3.77263 58.1247 3.91465 57.504 4.1895C56.8787 4.46163 56.3279 4.87761 55.8971 5.40298C55.1661 4.31613 53.9734 3.77271 52.3191 3.77271C51.7539 3.76392 51.1933 3.87509 50.675 4.09876C50.2207 4.29146 49.8197 4.58946 49.5056 4.96772C49.5056 4.95234 49.5056 4.93851 49.4947 4.92313C49.4896 4.89861 49.4829 4.87446 49.4746 4.85084C49.3562 4.49625 49.1149 4.19477 48.7935 4.00003C48.4721 3.80529 48.0915 3.72991 47.7193 3.7873C47.3471 3.84469 47.0075 4.03113 46.761 4.31345C46.5144 4.59577 46.3768 4.95568 46.3726 5.32915V13.5866C46.368 13.7806 46.4084 13.973 46.4907 14.149C46.573 14.325 46.6949 14.4799 46.8472 14.6017C47.1747 14.8708 47.5899 15.0124 48.0151 15C48.4268 15.0097 48.8261 14.8602 49.1287 14.5832C49.2756 14.4542 49.3924 14.2951 49.4711 14.117C49.5499 13.9388 49.5886 13.7457 49.5847 13.5512V8.4082C49.71 7.94435 49.9629 7.5242 50.3152 7.19473C50.5008 7.01941 50.72 6.88268 50.9597 6.79261C51.1994 6.70254 51.4549 6.66095 51.7111 6.67028C52.2953 6.67028 52.7456 6.86355 53.062 7.2501C53.3784 7.63665 53.5371 8.27645 53.5381 9.16951V13.5866C53.5327 13.7789 53.5709 13.9698 53.6498 14.1455C53.7287 14.3212 53.8464 14.4771 53.9941 14.6017C54.3142 14.8721 54.7246 15.0142 55.1449 15C55.562 15.0155 55.9705 14.8799 56.2942 14.6186C56.441 14.5049 56.5594 14.3592 56.6401 14.1927C56.7208 14.0263 56.7617 13.8436 56.7595 13.6589V8.44512C56.8758 7.97115 57.1222 7.53837 57.4714 7.19473C57.6573 7.01717 57.8779 6.87907 58.1195 6.7889C58.3611 6.69872 58.6187 6.65836 58.8766 6.67028C59.4608 6.67028 59.9116 6.86355 60.229 7.2501C60.5465 7.63665 60.7047 8.27645 60.7036 9.16951V13.5866C60.6982 13.7789 60.7364 13.9698 60.8153 14.1455C60.8942 14.3212 61.0119 14.4771 61.1596 14.6017C61.4797 14.8721 61.8901 15.0142 62.3104 15C62.7274 15.0148 63.1357 14.8793 63.4597 14.6186C63.6065 14.5049 63.7249 14.3592 63.8056 14.1927C63.8863 14.0263 63.9272 13.8436 63.925 13.6589V8.77578C63.925 7.03273 63.5295 5.76491 62.7385 4.97234" fill="#1DACFF"/>
<path d="M70.1165 3.96344C70.1165 3.96344 68.063 5.0062 66.5493 3.9173C65.0355 2.8284 65.9289 7.37008 67.7668 8.14523C69.6047 8.92037 70.1134 3.96344 70.1134 3.96344" fill="#1DACFF"/>
<path d="M72.9843 3.96344C72.9843 3.96344 75.0393 5.0062 76.5515 3.9173C78.0637 2.8284 77.1719 7.37008 75.3355 8.14523C73.4992 8.92037 72.9873 3.96344 72.9873 3.96344" fill="#1DACFF"/>
</g>
<defs>
<clipPath id="clip0_2_679">
<rect width="90" height="15" fill="white"/>
</clipPath>
</defs>
</svg>
