<svg width="24" height="24" viewBox="0 0 24 24" fill="none" xmlns="http://www.w3.org/2000/svg">
<path d="M23.1533 10.53L21.5783 8.68673C21.248 8.2652 21.0564 7.75162 21.03 7.21672V5.2333C21.0269 4.63706 20.7887 4.06612 20.3671 3.64451C19.9455 3.2229 19.3746 2.98478 18.7783 2.98171H16.795C16.2601 2.95531 15.7466 2.76363 15.325 2.43327L13.47 0.846619C13.0543 0.509388 12.5353 0.325378 12 0.325378C11.4647 0.325378 10.9457 0.509388 10.53 0.846619L8.6983 2.44495C8.27573 2.77181 7.76212 2.95943 7.22836 2.98171H5.20998C4.61927 3.00205 4.05829 3.2458 3.64035 3.66374C3.2224 4.08168 2.97866 4.64259 2.95832 5.2333V7.22839C2.93442 7.75828 2.74698 8.26775 2.4217 8.68673L0.846655 10.5417C0.515314 10.9555 0.334815 11.4699 0.334815 12C0.334815 12.5302 0.515314 13.0445 0.846655 13.4584L2.4217 15.3133C2.74698 15.7323 2.93442 16.2418 2.95832 16.7716V18.7666C2.97866 19.3573 3.2224 19.9184 3.64035 20.3363C4.05829 20.7542 4.61927 20.998 5.20998 21.0183H7.275C7.80991 21.0447 8.32349 21.2363 8.74501 21.5666L10.5884 23.1533C11.0041 23.4905 11.523 23.6747 12.0583 23.6747C12.5936 23.6747 13.1126 23.4905 13.5283 23.1533L15.3717 21.5666C15.7932 21.2363 16.3068 21.0447 16.8417 21.0183H18.825C19.4157 20.998 19.9767 20.7542 20.3947 20.3363C20.8126 19.9184 21.0563 19.3573 21.0767 18.7666V16.7833C21.1031 16.2484 21.2946 15.7348 21.625 15.3133L23.2116 13.47C23.5407 13.0477 23.7145 12.5249 23.7039 11.9896C23.6933 11.4543 23.4989 10.939 23.1533 10.53ZM16.8534 9.795L11.2183 15.43C11.0591 15.5759 10.851 15.6568 10.635 15.6568C10.419 15.6568 10.2109 15.5759 10.0517 15.43L7.22836 12.6067C7.0738 12.4408 6.98966 12.2214 6.99366 11.9948C6.99766 11.7681 7.08948 11.5518 7.24979 11.3915C7.41011 11.2312 7.62638 11.1393 7.85306 11.1353C8.07975 11.1313 8.29915 11.2154 8.46502 11.37L10.67 13.575L15.6867 8.55827C15.8522 8.39721 16.074 8.30719 16.305 8.30719C16.5359 8.30719 16.7578 8.39721 16.9234 8.55827C17.0693 8.71749 17.1502 8.92562 17.1502 9.1416C17.1502 9.35758 17.0693 9.56572 16.9234 9.72494L16.8534 9.795Z" fill="#0ECC15"/>
</svg>
