<svg width="24" height="24" viewBox="0 0 24 24" fill="none" xmlns="http://www.w3.org/2000/svg">
<path d="M12 2C10.0222 2 8.08878 2.58649 6.44429 3.6853C4.7998 4.78412 3.51808 6.3459 2.7612 8.17316C2.00432 10.0004 1.8063 12.0111 2.19215 13.9509C2.57801 15.8907 3.5304 17.6726 4.92893 19.0711C6.32745 20.4696 8.10929 21.422 10.0491 21.8079C11.9889 22.1937 13.9996 21.9957 15.8268 21.2388C17.6541 20.4819 19.2159 19.2002 20.3147 17.5557C21.4135 15.9112 22 13.9778 22 12C22 9.34784 20.9464 6.80429 19.0711 4.92892C17.1957 3.05356 14.6522 2 12 2ZM15.53 12C15.3894 12.1405 15.1988 12.2193 15 12.2193C14.8013 12.2193 14.6106 12.1405 14.47 12L12.75 10.31V15.5C12.75 15.6989 12.671 15.8897 12.5303 16.0303C12.3897 16.171 12.1989 16.25 12 16.25C11.8011 16.25 11.6103 16.171 11.4697 16.0303C11.329 15.8897 11.25 15.6989 11.25 15.5V10.31L9.53 12.03C9.39102 12.1469 9.21436 12.2094 9.03281 12.2059C8.85125 12.2024 8.67712 12.1331 8.54276 12.011C8.40839 11.8888 8.32291 11.7221 8.30217 11.5417C8.28143 11.3613 8.32685 11.1795 8.42999 11.03L11.43 8.03C11.5706 7.88955 11.7613 7.81067 11.96 7.81067C12.1588 7.81067 12.3494 7.88955 12.49 8.03L15.49 11.03C15.6147 11.1646 15.6873 11.3393 15.6946 11.5226C15.7019 11.706 15.6436 11.8859 15.53 12.03V12Z" fill="#1DACFF"/>
</svg>
