<svg width="14" height="19" viewBox="0 0 14 19" fill="none" xmlns="http://www.w3.org/2000/svg">
<path d="M13 1.00006L13 14.8918C13 18.2406 11.5001 18.9849 9.6001 16.6282L8.40002 15.1398C8.22528 14.9098 8.01559 14.725 7.78296 14.596C7.55032 14.467 7.29941 14.3965 7.04468 14.3884C6.78994 14.3803 6.53635 14.4349 6.29871 14.549C6.06106 14.663 5.84402 14.8343 5.66003 15.053L5.6001 15.1398L4.40002 16.6282C2.50002 18.9849 1 18.1166 1 14.8918L1 1.00006" fill="#1DACFF"/>
<path d="M13 1.00006L13 14.8918C13 18.2406 11.5001 18.9849 9.6001 16.6282L8.40002 15.1398C8.22528 14.9098 8.01559 14.725 7.78296 14.596C7.55032 14.467 7.29941 14.3965 7.04468 14.3884C6.78994 14.3803 6.53635 14.4349 6.29871 14.549C6.06106 14.663 5.84402 14.8343 5.66003 15.053L5.6001 15.1398L4.40002 16.6282C2.50002 18.9849 1 18.1166 1 14.8918L1 1.00006" stroke="#1DACFF" stroke-width="1.5" stroke-linecap="round" stroke-linejoin="round"/>
</svg>
