<svg width="24" height="24" viewBox="0 0 24 24" fill="none" xmlns="http://www.w3.org/2000/svg">
<path d="M18 3.00006L6 3.00006" stroke="#1DACFF" stroke-width="1.5" stroke-linecap="round" stroke-linejoin="round"/>
<path d="M18 3.00006L18 16.8918C18 20.2406 16.5001 20.9849 14.6001 18.6282L13.4 17.1398C13.2253 16.9098 13.0156 16.725 12.783 16.596C12.5503 16.467 12.2994 16.3965 12.0447 16.3884C11.7899 16.3803 11.5363 16.4349 11.2987 16.549C11.0611 16.663 10.844 16.8343 10.66 17.053L10.6001 17.1398L9.40002 18.6282C7.50002 20.9849 6 20.1166 6 16.8918L6 3.00006" fill="#1DACFF"/>
<path fill-rule="evenodd" clip-rule="evenodd" d="M18 2.25006C18.4142 2.25006 18.75 2.58585 18.75 3.00006L18.75 16.8918C18.75 17.7766 18.652 18.5394 18.4465 19.1474C18.2445 19.745 17.9041 20.2889 17.3513 20.5687C16.7683 20.8639 16.1408 20.7718 15.5904 20.4893C15.0529 20.2134 14.5253 19.7304 14.0162 19.099C14.0162 19.099 14.0162 19.099 14.0162 19.099L12.8162 17.6106C12.8116 17.605 12.8072 17.5993 12.8028 17.5935C12.6855 17.4391 12.5532 17.3262 12.4193 17.2519C12.2863 17.1782 12.1513 17.1422 12.0209 17.138C11.8907 17.1339 11.7562 17.1613 11.6233 17.2251C11.497 17.2857 11.3706 17.3801 11.2548 17.5116L11.2173 17.5659C11.2068 17.5812 11.1956 17.5961 11.184 17.6106L9.98389 19.099C9.98389 19.099 9.98389 19.099 9.98388 19.099C9.47295 19.7327 8.94148 20.2117 8.39693 20.4783C7.83521 20.7532 7.20843 20.8199 6.63548 20.5153C6.09482 20.2279 5.75678 19.6895 5.55441 19.0976C5.34867 18.496 5.25 17.7484 5.25 16.8918L5.25 3.00006C5.25 2.58585 5.58579 2.25006 6 2.25006C6.41421 2.25006 6.75 2.58585 6.75 3.00006L6.75 16.8918C6.75 17.6475 6.83883 18.2178 6.97372 18.6123C7.11198 19.0166 7.2677 19.1526 7.33955 19.1908C7.3791 19.2118 7.48357 19.2553 7.73749 19.131C8.00857 18.9983 8.37709 18.7021 8.81615 18.1575L8.81617 18.1575L9.99872 16.6908L10.0428 16.627C10.0563 16.6073 10.0708 16.5884 10.0861 16.5701C10.3328 16.277 10.6328 16.0367 10.9741 15.8728C11.3165 15.7085 11.6892 15.6268 12.0684 15.6388C12.4475 15.6508 12.8144 15.7559 13.1466 15.94C13.4746 16.1219 13.7593 16.3753 13.9902 16.6769L15.184 18.1575L15.184 18.1575C15.6249 18.7044 15.9973 19.0121 16.2754 19.1548C16.5406 19.2909 16.6443 19.2454 16.6738 19.2304C16.7335 19.2002 16.8868 19.0773 17.0254 18.6672C17.1606 18.2674 17.25 17.6814 17.25 16.8918L17.25 3.00006C17.25 2.58585 17.5858 2.25006 18 2.25006Z" fill="#1DACFF"/>
</svg>
