<svg width="21" height="21" viewBox="0 0 21 21" fill="none" xmlns="http://www.w3.org/2000/svg">
<path d="M15 9.90309e-05H5C3.67392 9.90309e-05 2.40216 0.526895 1.46448 1.46458C0.526796 2.40226 0 3.67402 0 5.0001V12.0001C0 13.3262 0.526796 14.5979 1.46448 15.5356C2.40216 16.4733 3.67392 17.0001 5 17.0001H6.5C6.80912 17.0222 7.09682 17.1661 7.29999 17.4001L8.79999 19.4001C8.89877 19.5644 9.03001 19.7066 9.18567 19.8185C9.34133 19.9303 9.51814 20.0092 9.70532 20.0504C9.8925 20.0916 10.0861 20.0941 10.2743 20.058C10.4625 20.0218 10.6414 19.9477 10.8 19.8401C10.9796 19.7306 11.1305 19.5798 11.24 19.4001L12.74 17.4001C12.8331 17.2759 12.9539 17.1751 13.0928 17.1057C13.2316 17.0363 13.3848 17.0001 13.54 17.0001H15.04C16.3661 17.0001 17.6378 16.4733 18.5755 15.5356C19.5132 14.5979 20.04 13.3262 20.04 12.0001V5.0001C20.04 4.34011 19.9094 3.68662 19.6556 3.07737C19.4018 2.46812 19.0299 1.91511 18.5614 1.45029C18.0929 0.985475 17.5369 0.618026 16.9257 0.369118C16.3144 0.120209 15.66 -0.00518088 15 9.90309e-05ZM6 10.0001C5.80222 10.0001 5.60888 9.9414 5.44443 9.83152C5.27998 9.72164 5.1518 9.56552 5.07611 9.38279C5.00042 9.20006 4.98064 8.99901 5.01923 8.80503C5.05781 8.61105 5.15302 8.4328 5.29288 8.29295C5.43273 8.15309 5.61092 8.05785 5.8049 8.01926C5.99888 7.98068 6.19996 8.00046 6.38269 8.07615C6.56542 8.15184 6.72157 8.27999 6.83145 8.44444C6.94133 8.60888 7 8.80232 7 9.0001C7 9.26532 6.89463 9.51959 6.70709 9.70713C6.51956 9.89467 6.26522 10.0001 6 10.0001ZM10 10.0001C9.80222 10.0001 9.60888 9.9414 9.44443 9.83152C9.27998 9.72164 9.1518 9.56552 9.07611 9.38279C9.00042 9.20006 8.98064 8.99901 9.01923 8.80503C9.05781 8.61105 9.15302 8.4328 9.29288 8.29295C9.43273 8.15309 9.61092 8.05785 9.8049 8.01926C9.99888 7.98068 10.2 8.00046 10.3827 8.07615C10.5654 8.15184 10.7216 8.27999 10.8315 8.44444C10.9413 8.60888 11 8.80232 11 9.0001C11 9.26532 10.8946 9.51959 10.7071 9.70713C10.5196 9.89467 10.2652 10.0001 10 10.0001ZM14 10.0001C13.8022 10.0001 13.6089 9.9414 13.4444 9.83152C13.28 9.72164 13.1518 9.56552 13.0761 9.38279C13.0004 9.20006 12.9806 8.99901 13.0192 8.80503C13.0578 8.61105 13.153 8.4328 13.2929 8.29295C13.4327 8.15309 13.6109 8.05785 13.8049 8.01926C13.9989 7.98068 14.2 8.00046 14.3827 8.07615C14.5654 8.15184 14.7216 8.27999 14.8315 8.44444C14.9413 8.60888 15 8.80232 15 9.0001C15 9.26532 14.8946 9.51959 14.7071 9.70713C14.5196 9.89467 14.2652 10.0001 14 10.0001Z" fill="#292D32"/>
</svg>
