<svg width="24" height="24" viewBox="0 0 24 24" fill="none" xmlns="http://www.w3.org/2000/svg">
<g clip-path="url(#clip0_1_132)">
<path d="M8.5 19H8C4 19 2 18 2 13V8C2 4 4 2 8 2H16C20 2 22 4 22 8V13C22 17 20 19 16 19H15.5C15.3448 19 15.1917 19.0362 15.0528 19.1056C14.9139 19.175 14.7932 19.2758 14.7 19.4L13.2 21.4C13.1002 21.5632 12.9685 21.7044 12.8127 21.8154C12.657 21.9264 12.4805 22.0048 12.2937 22.0459C12.1069 22.087 11.9138 22.09 11.7258 22.0546C11.5379 22.0192 11.3591 21.9462 11.2 21.84C11.0204 21.7305 10.8695 21.5797 10.76 21.4L9.26001 19.4C9.06919 19.1719 8.7961 19.0281 8.5 19Z" stroke="#292D32" stroke-width="1.5" stroke-linecap="round" stroke-linejoin="round"/>
<circle cx="8" cy="11" r="1" fill="#292D32"/>
<circle cx="12" cy="11" r="1" fill="#292D32"/>
<circle cx="16" cy="11" r="1" fill="#292D32"/>
</g>
<defs>
<clipPath id="clip0_1_132">
<rect width="24" height="24" fill="white"/>
</clipPath>
</defs>
</svg>
