<svg width="24" height="24" viewBox="0 0 24 24" fill="none" xmlns="http://www.w3.org/2000/svg">
<g clip-path="url(#clip0_12_1976)">
<path d="M15.61 5.50003V15.66C15.6109 16.0589 15.4925 16.4489 15.27 16.78L12.54 20.8401C12.2536 21.2283 11.8445 21.5083 11.379 21.6348C10.9135 21.7613 10.4189 21.7268 9.97546 21.537C9.53201 21.3471 9.16573 21.0129 8.93603 20.5887C8.70632 20.1645 8.62668 19.6752 8.71001 19.2L9.22997 15.93C9.25114 15.7926 9.24343 15.6522 9.20727 15.5179C9.17111 15.3835 9.10734 15.2583 9.02001 15.1501C8.93314 15.0529 8.82681 14.9751 8.70794 14.9217C8.58907 14.8683 8.46032 14.8405 8.33001 14.8401H4.21996C3.86039 14.8552 3.50251 14.783 3.17687 14.6297C2.85124 14.4765 2.56752 14.2467 2.34997 13.9601C2.15893 13.6765 2.04074 13.3502 2.00585 13.01C1.97097 12.6699 2.02045 12.3265 2.14996 12.01L4.60998 4.52005C4.8084 3.87629 5.20552 3.31188 5.74444 2.90769C6.28336 2.5035 6.93641 2.28029 7.60998 2.27005H11.51C12.2318 2.25965 12.9362 2.49206 13.51 2.93003L14.79 3.93003C15.038 4.11118 15.241 4.34703 15.3832 4.6193C15.5254 4.89157 15.603 5.19294 15.61 5.50003Z" fill="#292D32"/>
<path d="M18.79 17.61H19.79C21.34 17.61 21.97 17.01 21.97 15.53V5.47998C21.97 3.99998 21.34 3.40003 19.79 3.40003H18.79C17.24 3.40003 16.61 3.99998 16.61 5.47998V15.54C16.61 17.06 17.24 17.61 18.79 17.61Z" fill="#292D32"/>
</g>
<defs>
<clipPath id="clip0_12_1976">
<rect width="24" height="24" fill="white"/>
</clipPath>
</defs>
</svg>
