<svg width="24" height="24" viewBox="0 0 24 24" fill="none" xmlns="http://www.w3.org/2000/svg">
<path d="M16.5199 5.65001L13.42 3.24998C12.8735 2.83936 12.2031 2.6277 11.5199 2.65001H7.71994C7.09217 2.66299 6.48429 2.87262 5.98197 3.24937C5.47964 3.62612 5.10819 4.15095 4.91996 4.74998L2.51993 12.05C2.39147 12.3487 2.34313 12.6757 2.37961 12.9988C2.41609 13.3218 2.53612 13.6297 2.72794 13.8922C2.91976 14.1547 3.17671 14.3627 3.47342 14.4956C3.77014 14.6285 4.09639 14.6817 4.41996 14.65H8.41996C8.68517 14.65 8.93951 14.7554 9.12705 14.943C9.31458 15.1305 9.41996 15.3848 9.41996 15.65C9.42494 15.7166 9.42494 15.7835 9.41996 15.8501L8.91996 19.05C8.84593 19.5108 8.93535 19.983 9.17276 20.3847C9.41018 20.7865 9.78062 21.0926 10.2199 21.25C10.614 21.375 11.0372 21.3748 11.4312 21.2495C11.8252 21.1241 12.1706 20.8798 12.42 20.55L16.5199 14.4501" stroke="#292D32" stroke-width="1.5"/>
<path d="M21.62 5.64999V15.45C21.62 16.85 21.02 17.3501 19.62 17.3501H18.62C17.22 17.3501 16.62 16.85 16.62 15.45V5.64999C16.62 4.24999 17.22 3.74997 18.62 3.74997H19.62C21.02 3.74997 21.62 4.24999 21.62 5.64999Z" stroke="#292D32" stroke-width="1.5" stroke-linecap="round" stroke-linejoin="round"/>
</svg>
