<svg width="22" height="20" viewBox="0 0 22 20" fill="none" xmlns="http://www.w3.org/2000/svg">
<path d="M11.61 18.81C11.2053 18.93 10.7746 18.93 10.37 18.81C7.46997 17.81 0.989965 13.69 0.989965 6.68997C0.987334 5.95767 1.12915 5.23204 1.40726 4.5546C1.68538 3.87715 2.09433 3.26119 2.61075 2.74197C3.12718 2.22276 3.74091 1.81047 4.41685 1.52872C5.09278 1.24696 5.81766 1.10132 6.54996 1.10001C7.41369 1.09998 8.26533 1.30264 9.03647 1.69168C9.80762 2.08073 10.4767 2.64529 10.99 3.34C11.6886 2.40255 12.6655 1.70972 13.7812 1.36026C14.8969 1.0108 16.0944 1.02257 17.203 1.39395C18.3116 1.76533 19.2746 2.47734 19.9546 3.42838C20.6347 4.37941 20.997 5.52084 20.99 6.68997C21 13.69 14.52 17.82 11.61 18.81Z" fill="#E76254" stroke="#E76254" stroke-width="1.5" stroke-linecap="round" stroke-linejoin="round"/>
</svg>
