<svg width="44" height="44" viewBox="0 0 44 44" fill="none" xmlns="http://www.w3.org/2000/svg">
<circle cx="22" cy="22" r="22" fill="#292D32" fill-opacity="0.4"/>
<g clip-path="url(#clip0_60_15)">
<path d="M12 17.5599H16.43" stroke="white" stroke-width="1.5" stroke-linecap="round" stroke-linejoin="round"/>
<path d="M24.55 31.6699C26.8997 31.0508 28.9436 29.5975 30.2997 27.5813C31.6559 25.5651 32.2316 23.1241 31.9193 20.7144C31.6069 18.3046 30.4278 16.0912 28.6023 14.4874C26.7768 12.8837 24.4299 11.9995 22 12C20.0076 12.048 18.0566 12.5791 16.3148 13.5476C14.5729 14.5161 13.0922 15.8929 12 17.5599V13" stroke="white" stroke-width="1.5" stroke-linecap="round" stroke-linejoin="round"/>
<path d="M12 22C12 24.6522 13.0536 27.1957 14.929 29.071C16.8043 30.9464 19.3478 32 22 32" stroke="white" stroke-width="1.5" stroke-linecap="round" stroke-linejoin="round" stroke-dasharray="3 3"/>
</g>
<defs>
<clipPath id="clip0_60_15">
<rect width="24" height="24" fill="white" transform="translate(10 10)"/>
</clipPath>
</defs>
</svg>
