<svg width="20" height="20" viewBox="0 0 20 20" fill="none" xmlns="http://www.w3.org/2000/svg">
<path d="M10 0C8.02219 0 6.08878 0.586489 4.44429 1.6853C2.7998 2.78412 1.51808 4.3459 0.761201 6.17316C0.00432432 8.00042 -0.193698 10.0111 0.192155 11.9509C0.578007 13.8907 1.5304 15.6726 2.92893 17.0711C4.32745 18.4696 6.10929 19.422 8.0491 19.8079C9.98891 20.1937 11.9996 19.9957 13.8268 19.2388C15.6541 18.4819 17.2159 17.2002 18.3147 15.5557C19.4135 13.9112 20 11.9778 20 10C20 7.34784 18.9464 4.80429 17.0711 2.92892C15.1957 1.05356 12.6522 0 10 0ZM13.53 10C13.3894 10.1405 13.1988 10.2193 13 10.2193C12.8013 10.2193 12.6106 10.1405 12.47 10L10.75 8.31V13.5C10.75 13.6989 10.671 13.8897 10.5303 14.0303C10.3897 14.171 10.1989 14.25 10 14.25C9.80109 14.25 9.61032 14.171 9.46967 14.0303C9.32901 13.8897 9.25 13.6989 9.25 13.5V8.31L7.53 10.03C7.39102 10.1469 7.21436 10.2094 7.03281 10.2059C6.85125 10.2024 6.67712 10.1331 6.54276 10.011C6.40839 9.8888 6.32291 9.72206 6.30217 9.54166C6.28143 9.36125 6.32685 9.17945 6.42999 9.03L9.42999 6.03C9.57062 5.88955 9.76126 5.81067 9.96001 5.81067C10.1588 5.81067 10.3494 5.88955 10.49 6.03L13.49 9.03C13.6147 9.16458 13.6873 9.33927 13.6946 9.52261C13.7019 9.70595 13.6436 9.88589 13.53 10.03V10Z" fill="#1DACFF"/>
</svg>
